PathFileType	4	(X/Y/Z)	C:\Users\WrightLab\Desktop\Jo\P5V134.trc
DataRate	CameraRate	NumFrames	NumMarkers	Units	OrigDataRate	OrigDataStartFrame	OrigNumFrames
100.00	100.00	       10	19	mm	100.00	67	       529
Frame#	Time	Headset_Front			Headset_Back			Headset_Left			Headset_Right			Left_Shoulder			Right_Shoulder			Sternum			C7			Left Elbow			Right Elbow			Left Wrist			Right Wrist			Left ASIS			Right ASIS			S2			Left Knee			Right Knee			Left Ankle			Right Ankle			
		X1	Y1	Z1	X2	Y2	Z2	X3	Y3	Z3	X4	Y4	Z4	X5	Y5	Z5	X6	Y6	Z6	X7	Y7	Z7	X8	Y8	Z8	X9	Y9	Z9	X10	Y10	Z10	X11	Y11	Z11	X12	Y12	Z12	X13	Y13	Z13	X14	Y14	Z14	X15	Y15	Z15	X16	Y16	Z16	X17	Y17	Z17	X18	Y18	Z18	X19	Y19	Z19	

67	0.660																						-41.01937	1510.21912	-1209.74097	232.01283	1198.43176	-1282.32886	-287.21906	1180.91589	-1079.40710	240.40973	1139.08545	-1073.42834	-181.18005	1054.28516	-901.41290	169.38222	909.48328	-1097.94556	-81.56348	933.00812	-979.65839				187.83824	474.07935	-1160.46875	-142.01575	471.85184	-943.74841				-278.60657	133.88057	-1146.76709	
68	0.670																						-38.24840	1510.03967	-1207.55298	235.05936	1198.47168	-1281.47571	-284.06845	1180.98279	-1078.45605	242.98111	1139.41333	-1073.81921	-179.96761	1054.14514	-900.22583	171.43475	909.34491	-1096.92078	-79.13309	932.65747	-979.10608				190.47125	473.60571	-1162.57166	-131.86171	474.39609	-935.38019				-273.09882	139.41637	-1142.39514	
69	0.680																						-35.60869	1510.61780	-1206.46912	237.39014	1198.14417	-1279.73730	-281.62860	1181.09668	-1076.98779	246.28885	1138.26050	-1073.84753	-177.09221	1053.55383	-898.98529	174.15030	909.36536	-1098.64014	-75.74476	932.34143	-978.98291				191.20280	472.52884	-1163.13379	-120.40561	476.44382	-926.49353				-266.19806	145.57703	-1137.04285	
70	0.690																						-32.80580	1510.41553	-1203.94397	238.80368	1198.48462	-1279.72217	-279.12778	1181.35437	-1075.28748	247.99858	1138.50708	-1072.44922	-173.90875	1053.01953	-897.72992	177.28015	908.92957	-1098.33765	-73.44952	932.80670	-977.90906				194.54298	471.45764	-1164.96924	-108.20250	480.00278	-919.04437				-258.87802	150.91776	-1131.25330	
71	0.700																-37.94833	1564.09802	-899.18390				-30.16946	1511.17456	-1203.13135	241.20984	1199.38171	-1280.42651	-275.88910	1181.57861	-1074.48193	252.00851	1138.31824	-1072.89783	-171.74843	1053.19983	-896.50525	179.11453	908.55396	-1097.95911	-72.22900	932.60370	-977.64868				197.03299	471.01801	-1165.68665	-96.10790	483.37091	-911.26294				-251.05406	158.83553	-1125.80115	
72	0.710																-35.82433	1564.09827	-897.51685				-27.28047	1511.12085	-1200.49719	244.47762	1198.36926	-1276.63940	-272.99750	1181.31763	-1072.41968	253.81378	1138.35950	-1071.61035	-169.70221	1052.82703	-894.48718	180.25598	908.25421	-1097.55981	-68.99848	932.42639	-976.36230				201.96307	471.54150	-1166.71924	-82.59926	486.88159	-903.19989				-242.27699	163.48221	-1119.86536	
73	0.720																-33.79554	1564.58801	-896.00623				-24.39217	1511.33740	-1197.83557	246.91521	1199.26001	-1277.39587	-269.88321	1181.54395	-1070.81848	257.99203	1138.11047	-1071.58984	-167.02643	1052.15479	-893.46014	182.94620	908.29205	-1096.95056	-67.17697	932.27014	-975.81555				204.17053	471.65826	-1166.97388	-69.49391	491.03577	-895.73352				-234.34863	169.97188	-1114.37463	
74	0.730																-31.57427	1564.75378	-893.89233				-21.77302	1511.76782	-1196.84094	248.74692	1200.42798	-1278.68018	-267.25476	1181.04407	-1069.19861	259.74182	1137.91431	-1071.02026	-164.48952	1051.93970	-892.41388	185.45837	907.63531	-1096.38965	-66.13679	932.27777	-974.85297				207.85353	472.74850	-1165.69543	-58.50827	495.79404	-888.96857				-225.45113	175.33424	-1109.54578	
75	0.740																-29.54547	1565.00073	-892.22821				-18.92267	1511.37683	-1193.83472	251.64905	1200.42090	-1276.95715	-264.49881	1181.62341	-1067.05469	262.15286	1138.51563	-1070.61719	-161.87976	1050.89209	-890.14575	186.99231	907.12592	-1096.02832	-63.27538	931.82550	-972.99823				209.68423	473.66211	-1162.67212	-45.79688	499.39185	-880.87506				-217.57729	178.86998	-1104.48462	
76	0.750																-27.24922	1565.47656	-890.00745				-16.00548	1511.74915	-1191.20972	253.91214	1200.65552	-1275.91626	-261.55157	1181.39917	-1064.96313	264.62509	1138.27942	-1068.64661	-158.56827	1049.82507	-888.86377	189.36586	906.84467	-1094.37817	-62.02262	931.72388	-970.87585				211.22139	474.74542	-1159.21130	-33.67538	503.55188	-874.73541				-207.65352	183.03038	-1098.49524	
